REM MD5 3c0960974572b9d5b30cfacccbffaffe
FILE "Junclassic C.C. & Rope Club (Japan).bin" BINARY
  TRACK 01 MODE2/2352
    INDEX 01 00:00:00
  TRACK 02 AUDIO
    INDEX 00 27:40:24
    INDEX 01 27:42:24
  TRACK 03 AUDIO
    INDEX 00 28:50:18
    INDEX 01 28:52:18
  TRACK 04 AUDIO
    INDEX 00 28:56:57
    INDEX 01 28:58:57
  TRACK 05 AUDIO
    INDEX 00 29:03:21
    INDEX 01 29:05:21
  TRACK 06 AUDIO
    INDEX 00 29:09:60
    INDEX 01 29:11:60
  TRACK 07 AUDIO
    INDEX 00 29:16:24
    INDEX 01 29:18:24
  TRACK 08 AUDIO
    INDEX 00 29:28:24
    INDEX 01 29:30:24
  TRACK 09 AUDIO
    INDEX 00 29:35:24
    INDEX 01 29:37:24
  TRACK 10 AUDIO
    INDEX 00 29:43:49
    INDEX 01 29:45:49
  TRACK 11 AUDIO
    INDEX 00 29:50:49
    INDEX 01 29:52:49
  TRACK 12 AUDIO
    INDEX 00 29:58:64
    INDEX 01 30:00:64
  TRACK 13 AUDIO
    INDEX 00 30:11:42
    INDEX 01 30:13:42
  TRACK 14 AUDIO
    INDEX 00 30:18:06
    INDEX 01 30:20:06
  TRACK 15 AUDIO
    INDEX 00 30:24:45
    INDEX 01 30:26:45
  TRACK 16 AUDIO
    INDEX 00 30:33:46
    INDEX 01 30:35:46
  TRACK 17 AUDIO
    INDEX 00 30:40:10
    INDEX 01 30:42:10
  TRACK 18 AUDIO
    INDEX 00 30:46:49
    INDEX 01 30:48:49
  TRACK 19 AUDIO
    INDEX 00 31:12:27
    INDEX 01 31:14:27
  TRACK 20 AUDIO
    INDEX 00 31:41:24
    INDEX 01 31:43:24
  TRACK 21 AUDIO
    INDEX 00 32:14:01
    INDEX 01 32:16:01
  TRACK 22 AUDIO
    INDEX 00 32:40:11
    INDEX 01 32:42:11
  TRACK 23 AUDIO
    INDEX 00 33:04:49
    INDEX 01 33:06:49
  TRACK 24 AUDIO
    INDEX 00 33:33:59
    INDEX 01 33:35:59
  TRACK 25 AUDIO
    INDEX 00 34:03:17
    INDEX 01 34:05:17
  TRACK 26 AUDIO
    INDEX 00 34:28:07
    INDEX 01 34:30:07
  TRACK 27 AUDIO
    INDEX 00 34:59:64
    INDEX 01 35:01:64
  TRACK 28 AUDIO
    INDEX 00 35:25:62
    INDEX 01 35:27:62
  TRACK 29 AUDIO
    INDEX 00 35:55:35
    INDEX 01 35:57:35
  TRACK 30 AUDIO
    INDEX 00 36:20:09
    INDEX 01 36:22:09
  TRACK 31 AUDIO
    INDEX 00 36:51:65
    INDEX 01 36:53:65
  TRACK 32 AUDIO
    INDEX 00 37:17:64
    INDEX 01 37:19:64
  TRACK 33 AUDIO
    INDEX 00 37:49:06
    INDEX 01 37:51:06
  TRACK 34 AUDIO
    INDEX 00 38:12:64
    INDEX 01 38:14:64
  TRACK 35 AUDIO
    INDEX 00 38:47:14
    INDEX 01 38:49:14
  TRACK 36 AUDIO
    INDEX 00 39:19:47
    INDEX 01 39:21:47
  TRACK 37 AUDIO
    INDEX 00 39:50:07
    INDEX 01 39:52:07
  TRACK 38 AUDIO
    INDEX 00 40:16:01
    INDEX 01 40:18:01
  TRACK 39 AUDIO
    INDEX 00 40:50:07
    INDEX 01 40:52:07
  TRACK 40 AUDIO
    INDEX 00 41:19:68
    INDEX 01 41:21:68
  TRACK 41 AUDIO
    INDEX 00 41:53:24
    INDEX 01 41:55:24
  TRACK 42 AUDIO
    INDEX 00 42:19:20
    INDEX 01 42:21:20
  TRACK 43 AUDIO
    INDEX 00 42:53:54
    INDEX 01 42:55:54
  TRACK 44 AUDIO
    INDEX 00 43:19:60
    INDEX 01 43:21:60
  TRACK 45 AUDIO
    INDEX 00 43:54:69
    INDEX 01 43:56:69
  TRACK 46 AUDIO
    INDEX 00 44:25:27
    INDEX 01 44:27:27
  TRACK 47 AUDIO
    INDEX 00 44:51:45
    INDEX 01 44:53:45
  TRACK 48 AUDIO
    INDEX 00 45:24:65
    INDEX 01 45:26:65
  TRACK 49 AUDIO
    INDEX 00 45:54:33
    INDEX 01 45:56:33
  TRACK 50 AUDIO
    INDEX 00 46:23:61
    INDEX 01 46:25:61
  TRACK 51 AUDIO
    INDEX 00 46:55:33
    INDEX 01 46:57:33
  TRACK 52 AUDIO
    INDEX 00 47:27:29
    INDEX 01 47:29:29
  TRACK 53 AUDIO
    INDEX 00 48:01:59
    INDEX 01 48:03:59
  TRACK 54 AUDIO
    INDEX 00 48:33:59
    INDEX 01 48:35:59
  TRACK 55 AUDIO
    INDEX 00 48:45:60
    INDEX 01 48:47:60
  TRACK 56 AUDIO
    INDEX 00 48:52:24
    INDEX 01 48:54:24
  TRACK 57 AUDIO
    INDEX 00 49:20:08
    INDEX 01 49:22:08
  TRACK 58 AUDIO
    INDEX 00 51:33:61
    INDEX 01 51:35:61
  TRACK 59 AUDIO
    INDEX 00 54:30:20
    INDEX 01 54:32:20
REM LEADOUT 57:47:21
